<?xml version="1.0" encoding="utf-8"?>
<!-- Generator: Adobe Illustrator 19.0.1, SVG Export Plug-In . SVG Version: 6.00 Build 0)  -->
<svg version="1.1" id="Слой_1" xmlns="http://www.w3.org/2000/svg" xmlns:xlink="http://www.w3.org/1999/xlink" x="0px" y="0px"
	 viewBox="0 0 582 582" style="enable-background:new 0 0 582 582;" xml:space="preserve">
<style type="text/css">
	.st0{fill:#706F6F;}
	.st1{fill:#FFFFFF;}
</style>
<circle class="st0" cx="291" cy="291" r="291"/>
<path class="st1" d="M463.5,255.1H326.9V118.5c0-11.9-9.6-21.5-21.5-21.5h-28.7c-11.9,0-21.5,9.6-21.5,21.5v136.6H118.5
	c-11.9,0-21.5,9.6-21.5,21.5v28.7c0,11.9,9.6,21.5,21.5,21.5h136.6v136.6c0,11.9,9.6,21.5,21.5,21.5h28.7c11.9,0,21.5-9.6,21.5-21.5
	V326.9h136.6c11.9,0,21.5-9.6,21.5-21.5v-28.7C485,264.8,475.4,255.1,463.5,255.1z"/>
</svg>
